HIERARCHY
ROOT root
{
	OFFSET 0.000000 0.000000 0.000000
	CHANNELS 6 Xposition Yposition Zposition Zrotation Yrotation Xrotation
	JOINT lhip
	{
		OFFSET 0.058581 -0.082280 -0.017664
		CHANNELS 3 Zrotation Yrotation Xrotation
		JOINT lknee
		{
			OFFSET 0.043451 -0.386469 0.008037
			CHANNELS 3 Zrotation Yrotation Xrotation
			JOINT lankle
			{
				OFFSET -0.014790 -0.426874 -0.037428
				CHANNELS 3 Zrotation Yrotation Xrotation
				JOINT ltoe
				{
					OFFSET 0.041054 -0.060286 0.122042
					CHANNELS 3 Zrotation Yrotation Xrotation
					End Site
					{
						OFFSET 0.000000 0.000000 0.000000
					}
				}
			}
		}
	}
	JOINT rhip
	{
		OFFSET -0.060310 -0.090513 -0.013543
		CHANNELS 3 Zrotation Yrotation Xrotation
		JOINT rknee
		{
			OFFSET -0.043257 -0.383688 -0.004843
			CHANNELS 3 Zrotation Yrotation Xrotation
			JOINT rankle
			{
				OFFSET 0.019056 -0.420046 -0.034562
				CHANNELS 3 Zrotation Yrotation Xrotation
				JOINT rtoe
				{
					OFFSET -0.034840 -0.062106 0.130323
					CHANNELS 3 Zrotation Yrotation Xrotation
					End Site
					{
						OFFSET 0.000000 0.000000 0.000000
					}
				}
			}
		}
	}
	JOINT lowerback
	{
		OFFSET 0.004439 0.124404 -0.038385
		CHANNELS 3 Zrotation Yrotation Xrotation
		JOINT upperback
		{
			OFFSET 0.004488 0.137956 0.026820
			CHANNELS 3 Zrotation Yrotation Xrotation
			JOINT chest
			{
				OFFSET -0.002265 0.056032 0.002855
				CHANNELS 3 Zrotation Yrotation Xrotation
				JOINT lowerneck
				{
					OFFSET -0.013390 0.211636 -0.033468
					CHANNELS 3 Zrotation Yrotation Xrotation
					JOINT upperneck
					{
						OFFSET 0.010113 0.088937 0.050410
						CHANNELS 3 Zrotation Yrotation Xrotation
						End Site
						{
							OFFSET 0.000000 0.000000 0.000000
						}
					}
				}
				JOINT lclavicle
				{
					OFFSET 0.071702 0.114000 -0.018898
					CHANNELS 3 Zrotation Yrotation Xrotation
					JOINT lshoulder
					{
						OFFSET 0.122921 0.045205 -0.019046
						CHANNELS 3 Zrotation Yrotation Xrotation
						JOINT lelbow
						{
							OFFSET 0.255332 -0.015649 -0.022946
							CHANNELS 3 Zrotation Yrotation Xrotation
							JOINT lwrist
							{
								OFFSET 0.265709 0.012698 -0.007375
								CHANNELS 3 Zrotation Yrotation Xrotation
								End Site
								{
									OFFSET 0.000000 0.000000 0.000000
								}
							}
						}
					}
				}
				JOINT rclavicle
				{
					OFFSET -0.082954 0.112472 -0.023707
					CHANNELS 3 Zrotation Yrotation Xrotation
					JOINT rshoulder
					{
						OFFSET -0.113228 0.046853 -0.008472
						CHANNELS 3 Zrotation Yrotation Xrotation
						JOINT relbow
						{
							OFFSET -0.260127 -0.014369 -0.031269
							CHANNELS 3 Zrotation Yrotation Xrotation
							JOINT rwrist
							{
								OFFSET -0.269108 0.006794 -0.006027
								CHANNELS 3 Zrotation Yrotation Xrotation
								End Site
								{
									OFFSET 0.000000 0.000000 0.000000
								}
							}
						}
					}
				}
			}
		}
	}
}
MOTION
Frames: 7
Frame Time: 0.033333
-0.104497 0.273955 0.959197 103.424391 1.951651 89.253610 5.692103 0.705593 10.728752 0.519360 -4.734264 6.162254 1.306505 8.340710 -26.244776 0.000000 -0.000000 0.000000 -13.300727 -8.741199 -16.390406 2.627586 -11.425049 5.096554 9.533600 -1.306800 9.462566 0.000000 -0.000000 0.000000 -3.598004 -1.728548 -2.760793 5.285154 -5.104584 9.581761 0.887146 -1.165174 -5.455121 -1.694130 -5.250634 9.838202 7.483367 -7.142354 -2.110319 -13.227478 -15.939466 2.275554 -46.839998 -37.465676 13.368572 155.235574 -46.727334 -127.223199 22.788924 -31.646664 -16.717028 11.469989 17.066105 -0.946181 42.021535 29.091804 -1.959735 -147.355957 47.681029 -128.665100 -15.236932 27.026317 -22.944424 
-0.104956 0.273954 0.959060 103.330026 1.905207 89.298844 5.594896 0.667542 10.658439 0.480723 -4.766786 6.167926 1.263934 8.528150 -26.278146 0.000000 -0.000000 0.000000 -13.396698 -8.701420 -16.633333 2.687011 -11.651662 5.295623 9.607057 -1.433827 9.588316 0.000000 -0.000000 0.000000 -3.448412 -1.774435 -2.547038 5.195264 -5.060462 9.049488 0.871436 -1.250416 -4.963880 -1.684095 -5.055329 9.847018 7.576406 -7.153865 -2.293177 -12.911251 -16.032149 2.135631 -46.939909 -37.231299 13.105257 155.414464 -46.795789 -127.197125 23.294915 -31.543902 -16.701116 11.914693 17.536543 -0.927722 41.343791 28.866675 -2.236085 -147.407400 47.766392 -129.199277 -15.429063 27.094903 -22.669603 
-0.105291 0.274037 0.959031 103.288806 1.847447 89.315678 5.528128 0.708827 10.617973 0.453938 -4.785568 6.178219 1.295347 8.548793 -26.274689 0.000000 -0.000000 0.000000 -13.486720 -8.771723 -16.841648 2.697833 -11.656602 5.576137 9.672503 -1.429703 9.626080 0.000000 -0.000000 0.000000 -3.376761 -1.823150 -2.444143 5.213754 -5.074631 9.027199 0.870095 -1.261823 -4.914098 -1.727314 -5.060299 9.806989 7.475070 -7.083868 -2.279471 -12.857666 -16.038097 2.096803 -46.900570 -37.171461 13.051293 155.450028 -46.915998 -127.050648 24.027771 -31.416443 -16.609955 11.841853 17.582518 -1.020234 41.331056 28.966920 -2.151194 -147.392955 47.864238 -129.223902 -16.199754 27.026320 -22.910753 
-0.105384 0.274085 0.959009 103.311727 1.798434 89.302660 5.501212 0.756666 10.626210 0.418770 -4.882020 6.164835 1.301476 8.555061 -26.266330 0.000000 -0.000000 0.000000 -13.546413 -8.777993 -16.910006 2.678674 -11.712885 5.697851 9.644348 -1.538979 9.635611 0.000000 -0.000000 0.000000 -3.301008 -1.909431 -2.351385 5.243094 -5.122320 9.029838 0.866622 -1.285948 -4.886087 -1.738355 -5.072370 9.753269 7.323688 -7.012775 -2.150855 -12.811131 -15.979450 2.035245 -46.969209 -37.143362 13.088326 155.490707 -47.102433 -126.773722 25.070447 -31.216924 -16.425115 11.705574 17.554450 -1.114287 41.398949 29.140969 -1.974259 -147.333229 47.923481 -129.216667 -17.488328 26.834808 -23.462681 
-0.105331 0.274009 0.958968 103.329206 1.767632 89.323781 5.470573 0.753956 10.600872 0.411946 -4.931935 6.164422 1.295766 8.584647 -26.263732 0.000000 -0.000000 0.000000 -13.536808 -8.756640 -16.939495 2.642922 -11.770040 5.677070 9.546443 -1.661514 9.619558 0.000000 -0.000000 0.000000 -3.272849 -1.954914 -2.347853 5.263887 -5.153852 9.034926 0.868716 -1.310846 -4.870856 -1.753472 -5.090429 9.702093 7.252123 -6.977957 -2.044604 -12.777189 -15.933007 1.988461 -47.062440 -37.119350 13.146971 155.525078 -47.187035 -126.633358 25.611401 -31.089205 -16.397163 11.631626 17.514056 -1.187602 41.443208 29.243944 -1.833456 -147.335885 47.933574 -129.265629 -18.230080 26.694959 -23.823701 
-0.105299 0.273751 0.958864 103.321673 1.717137 89.391647 5.401693 0.740339 10.510533 0.420533 -4.931007 6.187865 1.296636 8.606511 -26.270826 0.000000 -0.000000 0.000000 -13.501835 -8.741421 -17.004812 2.583412 -11.805739 5.602210 9.407099 -1.747658 9.589605 0.000000 -0.000000 0.000000 -3.231805 -1.989270 -2.331910 5.275080 -5.182782 8.942945 0.874813 -1.354881 -4.827174 -1.832384 -5.106590 9.671120 7.191024 -6.888620 -2.000478 -12.773543 -15.873844 1.971057 -47.100981 -37.076034 13.153579 155.599673 -47.175431 -126.687475 25.969174 -30.985729 -16.490696 11.595500 17.493326 -1.246009 41.408250 29.377568 -1.701159 -147.398889 47.924984 -129.513005 -18.787939 26.534722 -24.129058 
-0.105309 0.273440 0.958722 103.270747 1.678606 89.424640 5.351530 0.734756 10.446688 0.417683 -4.891378 6.242661 1.306582 8.628286 -26.298537 0.000000 -0.000000 0.000000 -13.476035 -8.724298 -17.017321 2.556682 -11.790669 5.492892 9.325647 -1.745585 9.553992 0.000000 -0.000000 0.000000 -3.182848 -2.004281 -2.302706 5.266168 -5.199797 8.907910 0.871019 -1.381477 -4.791148 -1.847865 -5.096610 9.580566 7.130651 -6.851741 -1.972701 -12.749248 -15.857085 1.927196 -47.146315 -37.016868 13.151104 155.612276 -47.218706 -126.654442 26.176608 -30.953864 -16.321515 11.587547 17.521885 -1.283233 41.363154 29.484386 -1.631278 -147.457031 47.943736 -129.761140 -18.855343 26.453772 -24.264671 
